<svg width="40" height="40" viewBox="0 0 40 40" fill="none" xmlns="http://www.w3.org/2000/svg">
<path d="M13.7266 0.304688L13.3984 0.617188L13.375 3L13.3516 5.39062H16.9141H20.4688V3.14062C20.4688 0.632812 20.4453 0.523438 19.9297 0.179688C19.6641 0 19.6484 0 16.8594 0H14.0547L13.7266 0.304688Z" fill="white"/>
<path d="M13.3594 7.71094C13.3594 7.75 13.3203 8.08594 13.2812 8.46875C13.1406 9.67969 12.7344 10.6484 11.9453 11.6797L11.5703 12.1641L12.2422 12.7422C13.9766 14.2344 14.875 14.6641 16.4922 14.7422L17.3203 14.7891L17.4531 14.3906C17.6406 13.8438 18.1172 13.125 18.5234 12.7969C19.2734 12.1875 20.0312 11.9531 21.2344 11.9531H22.0391L21.6875 11.4609C20.9844 10.4766 20.5859 9.39844 20.4922 8.25781L20.4453 7.65625H16.9062C14.9531 7.65625 13.3594 7.67969 13.3594 7.71094Z" fill="white"/>
<path d="M9.61719 14.7031C9.39844 15.1484 9.125 15.8594 9.00781 16.2891L8.79688 17.0703L8.76563 22.9062L8.74219 28.75H11.7188C14.0391 28.75 14.6875 28.7266 14.6875 28.6484C14.6875 28.6016 14.6328 28.2344 14.5703 27.8516C14.2734 26.0547 14.5859 24.1328 15.9453 19.3594C16.2891 18.1719 16.5625 17.1641 16.5625 17.1328C16.5625 17.0938 16.2266 17.0234 15.8047 16.9688C14.8906 16.8516 13.8594 16.5156 12.9844 16.0547C12.2578 15.6719 12.0313 15.5 10.9297 14.5547C10.5156 14.1953 10.1406 13.9062 10.0938 13.9062C10.0469 13.9062 9.83594 14.2656 9.61719 14.7031Z" fill="white"/>
<path d="M20.2734 14.3281C19.7969 14.5391 19.6953 14.7422 19.0156 16.9609C18.2969 19.2734 17.5312 21.9922 17.2344 23.2578L17.0469 24.0625H23.9531C30.1406 24.0625 30.8594 24.0469 30.8594 23.9375C30.8594 23.2969 28.4688 15.1328 28.1484 14.6953C27.7969 14.2188 27.8047 14.2188 23.9844 14.2188C21.2578 14.2266 20.4531 14.25 20.2734 14.3281Z" fill="white"/>
<path d="M16.7422 27.0156C16.8594 28.6172 17.5859 30.2266 18.7422 31.4297C19.6172 32.3516 21 33.1641 22.1172 33.4141L22.7344 33.5547V35.6016V37.6562H21.3281H19.9141L19.5859 37.9609C19.2578 38.2656 19.2578 38.2734 19.2578 38.8281C19.2578 39.3828 19.2578 39.3906 19.5859 39.6953L19.9141 40H23.9219C27.7813 40 27.9375 39.9922 28.1875 39.8438C28.9375 39.3828 28.9375 38.2734 28.1875 37.8125C27.9531 37.6719 27.7891 37.6562 26.5391 37.6562H25.1563L25.1719 35.6172L25.1953 33.5781L25.7422 33.4375C27.0625 33.1016 28.1719 32.4688 29.1094 31.5312C30.3594 30.2734 31.0703 28.7344 31.2188 26.9688L31.2734 26.3281H23.9844H16.6953L16.7422 27.0156Z" fill="white"/>
<path d="M8.75 35.0547C8.75 39.5625 8.73437 39.4531 9.28906 39.8203L9.55469 40H13.3359H17.125L17.0547 39.75C17.0234 39.6094 16.9922 39.1406 16.9922 38.7109C16.9922 37.9844 17.0156 37.8906 17.2578 37.3828C17.7578 36.3594 18.8594 35.5234 19.8437 35.4219C20.0781 35.3984 20.3281 35.3594 20.3906 35.3438C20.4531 35.3203 20.1641 35.125 19.7031 34.8828C19.2656 34.6562 18.6641 34.2969 18.375 34.0938C17.625 33.5547 16.5937 32.4688 16.0937 31.6953L15.6641 31.0234H12.2109L8.75 31.0156V35.0547Z" fill="white"/>
</svg>
