<svg width="40" height="40" viewBox="0 0 40 40" fill="none" xmlns="http://www.w3.org/2000/svg">
<g clip-path="url(#clip0_3_9)">
<path d="M18.3984 0.117189C16.1563 0.523439 14.0313 1.92969 12.8047 3.80469C12.6016 4.11719 12.4219 4.41406 12.4063 4.46094C12.3828 4.52344 12.1172 4.46094 11.5938 4.27344C8.89844 3.32031 5.97657 3.69531 3.64063 5.3125C2.92188 5.8125 1.88282 6.88281 1.36719 7.64844C0.500006 8.96094 0.0859435 10.2969 0.0234435 11.9688C-0.0390565 13.6875 0.210943 14.9531 0.867193 16.2656C1.64063 17.8203 2.65626 18.8828 4.41407 19.9688C6.17969 21.0703 7.25782 22.4141 7.84376 24.2734C8.02344 24.8516 8.05469 25.1563 8.16407 27.2031C8.22657 28.4609 8.30469 29.75 8.32813 30.0625L8.37501 30.625H20H31.625L31.6719 30.0547C31.6953 29.75 31.7734 28.4609 31.8359 27.2031C31.9453 25.1563 31.9766 24.8516 32.1563 24.2734C32.75 22.3984 33.8203 21.0625 35.6328 19.9453C37.8672 18.5547 39.1328 16.9063 39.7813 14.5313C39.9375 13.9453 39.9609 13.6875 39.9609 12.3828C39.9609 11.0781 39.9375 10.8203 39.7813 10.25C39.3672 8.72656 38.6797 7.52344 37.5938 6.39063C35.2266 3.92969 31.6797 3.10938 28.4063 4.27344C27.8828 4.46094 27.6172 4.52344 27.5938 4.46094C27.5781 4.41406 27.3984 4.11719 27.1953 3.80469C25.9609 1.92188 23.8125 0.507814 21.5859 0.117189C20.7813 -0.0234357 19.1563 -0.0234357 18.3984 0.117189ZM20.5703 12.0859C20.6875 12.1484 20.8594 12.3047 20.9375 12.4453C21.0859 12.6875 21.0938 12.8984 21.0938 20.2109V27.7188L20.8906 27.9688C20.3594 28.5938 19.6406 28.5938 19.1094 27.9688L18.9063 27.7188V20.2266C18.9063 12.2891 18.8984 12.4844 19.25 12.1953C19.4531 12.0234 19.9453 11.8828 20.1563 11.9297C20.2656 11.9531 20.4531 12.0234 20.5703 12.0859ZM13.4297 15.625C13.6406 15.7266 13.7813 15.8828 13.8906 16.1094C14.125 16.6094 16.3516 27.2188 16.2969 27.5391C16.1172 28.4844 14.8594 28.7578 14.3047 27.9766C14.0781 27.6641 11.7578 16.8203 11.8281 16.4063C11.8828 16.0547 12.0938 15.7734 12.4297 15.6094C12.7734 15.4297 13.0625 15.4297 13.4297 15.625ZM27.5313 15.5781C27.8516 15.7109 28.1094 16.0313 28.1719 16.375C28.2266 16.6875 26.0156 27.3516 25.7969 27.8125C25.5234 28.3828 24.7813 28.6094 24.2422 28.2813C23.9922 28.1328 23.6719 27.625 23.6719 27.3828C23.6719 27.0234 26.0234 16.2266 26.1484 16.0156C26.4141 15.5469 27.0078 15.3594 27.5313 15.5781Z" fill="white"/>
<path d="M8.35938 33.0703C7.73438 33.3984 7.73438 33.4062 7.73438 36.4844C7.73438 39.0391 7.74219 39.1953 7.89062 39.4375C7.97656 39.5781 8.15625 39.7578 8.29688 39.8438C8.55469 40 8.71875 40 20 40C31.2812 40 31.4453 40 31.7031 39.8438C31.8438 39.7578 32.0234 39.5781 32.1094 39.4375C32.2578 39.1953 32.2656 39.0391 32.2656 36.4844C32.2656 33.4062 32.2656 33.3984 31.6406 33.0703L31.3047 32.8906H20H8.69531L8.35938 33.0703Z" fill="white"/>
</g>
<defs>
<clipPath id="clip0_3_9">
<rect width="40" height="40" fill="white"/>
</clipPath>
</defs>
</svg>
