<svg width="31" height="31" viewBox="0 0 31 31" fill="none" xmlns="http://www.w3.org/2000/svg">
<path d="M13.9855 0.0126787C12.169 0.231027 10.6553 0.631333 9.1839 1.28638C5.10284 3.09989 1.93608 6.69051 0.640314 10.9786C0.39206 11.7792 0.149861 12.9984 0.0590361 13.8172C-0.0196787 14.5753 -0.0196787 16.4313 0.0590361 17.1894C0.4405 20.7801 2.06929 24.1099 4.69715 26.6694C7.05254 28.956 9.81967 30.3389 13.1681 30.8908C13.6949 30.9757 14.1793 31 15.4992 31C17.3157 31 17.8062 30.9454 19.2412 30.5997C24.4969 29.3199 28.7839 25.2502 30.3582 20.028C30.8062 18.5541 31 17.1894 31 15.5033C31 14.2357 30.9394 13.5382 30.7215 12.4404C30.1099 9.34709 28.6022 6.58134 26.3013 4.3372C23.9823 2.08699 21.2636 0.710181 18.0181 0.152179C17.4308 0.0490701 16.9706 0.0187439 15.7414 0.00661342C14.8937 -0.00551707 14.1005 0.000548176 13.9855 0.0126787ZM16.7102 4.80422C17.5822 5.02257 18.5752 5.60483 19.1686 6.22955C20.1495 7.27884 20.6399 8.60713 20.5673 10.0143C20.5309 10.7239 20.4885 10.924 20.2463 11.573C19.7075 13.0166 18.3754 14.2357 16.8616 14.6663C16.1653 14.8665 14.8332 14.8665 14.149 14.6663C13.0167 14.3388 12.0297 13.6413 11.3516 12.683C10.1466 10.9908 10.1043 8.75269 11.2365 6.99984C12.0055 5.80498 13.1862 5.0165 14.6213 4.73144C15.1481 4.62833 16.1653 4.66472 16.7102 4.80422ZM19.3684 17.5109C21.748 17.893 23.619 20.0886 23.6129 22.4905C23.6069 23.3153 23.3526 23.8248 22.6502 24.3828C20.5552 26.0568 18.1453 26.912 15.4992 26.912C13.2952 26.912 11.394 26.3662 9.50481 25.2016C8.29381 24.4556 7.65804 23.8369 7.44612 23.188C7.3008 22.7209 7.37951 21.6474 7.62171 20.9499C8.22115 19.2092 9.84389 17.802 11.5817 17.5109C12.0418 17.4321 18.8961 17.4321 19.3684 17.5109Z" fill="white"/>
</svg>
