<svg width="30" height="30" viewBox="0 0 30 30" fill="none" xmlns="http://www.w3.org/2000/svg">
<g clip-path="url(#clip0_4_13)">
<path d="M15.9961 0.117191C13.3652 0.521488 11.0801 1.67579 9.22266 3.53907C6.87891 5.89454 5.66602 8.78907 5.66016 12.041C5.66016 14.0801 6.07617 15.7793 7.03711 17.666C7.25977 18.0996 7.44141 18.5039 7.44141 18.5566C7.44141 18.6094 5.95313 20.1445 4.14258 21.9668C2.32617 23.7949 0.755862 25.4063 0.650394 25.5645C0.152347 26.3027 -0.0292938 26.8945 0.0117218 27.6621C0.0468781 28.3359 0.222659 28.7109 0.755862 29.2441C1.28907 29.7773 1.66407 29.9531 2.33789 29.9883C3.10547 30.0293 3.69727 29.8477 4.43555 29.3496C4.59375 29.2441 6.20508 27.6738 8.03321 25.8574C9.85547 24.0469 11.3906 22.5586 11.4434 22.5586C11.4961 22.5586 11.9004 22.7402 12.334 22.9629C14.2207 23.9238 15.9199 24.3398 17.959 24.3398C21.2109 24.334 24.1055 23.1211 26.4609 20.7773C28.7813 18.4629 30 15.5039 30 12.1758C30 8.84766 28.7754 5.86524 26.4551 3.54493C24.5566 1.64063 22.2539 0.498051 19.4941 0.0937538C18.6328 -0.0351524 16.8984 -0.0234337 15.9961 0.117191ZM19.0723 3.30469C21.0645 3.61524 22.5938 4.35938 24.0176 5.71289C26.9297 8.47852 27.6211 12.8965 25.6934 16.4414C24.7031 18.252 23.0098 19.752 21.082 20.5137C19.5 21.1348 17.4258 21.2813 15.791 20.8828C14.1152 20.4727 12.709 19.6816 11.5137 18.4863C10.1309 17.1035 9.26367 15.375 8.96485 13.418C8.8711 12.7969 8.88282 11.502 8.98828 10.8106C9.56836 6.97852 12.6328 3.91407 16.4824 3.31055C17.1328 3.21094 18.4277 3.20508 19.0723 3.30469Z" fill="white"/>
<path d="M17.2266 4.92774C14.5664 5.34962 12.293 7.03712 11.1973 9.4043C10.8633 10.1309 10.8984 10.5879 11.3203 11.0508C11.6074 11.3613 12.041 11.5195 12.4395 11.4551C12.9316 11.3731 13.2129 11.1328 13.5176 10.5293C14.209 9.15235 15.1934 8.26173 16.6055 7.73438C17.6836 7.33009 19.1367 7.3418 20.2617 7.76954C21.334 8.17384 22.2305 7.66407 22.2305 6.6504C22.2305 6.26954 22.125 6.00587 21.8672 5.73048C21.6211 5.4668 20.6543 5.13282 19.5996 4.94532C19.084 4.85743 17.748 4.84571 17.2266 4.92774Z" fill="white"/>
</g>
<defs>
<clipPath id="clip0_4_13">
<rect width="30" height="30" fill="white"/>
</clipPath>
</defs>
</svg>
