<svg width="26" height="26" viewBox="0 0 26 26" fill="none" xmlns="http://www.w3.org/2000/svg">
<g clip-path="url(#clip0_5_17)">
<path d="M11.3039 0.081251C5.79922 0.78711 1.32539 4.97149 0.228516 10.4355C0.0507812 11.3191 0 11.9082 0 13C0 14.0918 0.0507812 14.6809 0.228516 15.5645C0.467187 16.7527 0.776953 17.6617 1.3457 18.8145C3.25508 22.6992 7.05859 25.3906 11.375 25.9238C12.2027 26.0254 13.8023 26.0254 14.625 25.9238C20.5309 25.1926 25.1977 20.5258 25.9238 14.625C26.0254 13.7973 26.0254 12.2027 25.9238 11.375C25.4566 7.60195 23.3695 4.24024 20.1602 2.10742C18.5809 1.06133 16.5496 0.314845 14.625 0.0761728C13.8379 -0.0203115 12.0758 -0.0152334 11.3039 0.081251ZM17.6973 4.79883C18.6621 5.09336 19.4645 5.93633 19.7285 6.93164C19.825 7.31758 19.825 8.01836 19.7285 8.4043C19.5406 9.11523 19.048 9.79063 18.4184 10.207C17.6973 10.6793 16.7172 10.8063 15.9148 10.5371C15.4629 10.3848 15.2598 10.2781 14.9195 9.99375C14.7875 9.88711 14.6656 9.80078 14.6453 9.80078C14.6199 9.80078 13.6957 10.3289 12.5887 10.9789L10.5676 12.152L10.6031 12.3094C10.6488 12.5125 10.6488 13.4875 10.6031 13.6906L10.5676 13.848L12.5887 15.0211C13.6957 15.6711 14.6199 16.1992 14.6453 16.1992C14.6656 16.1992 14.7875 16.1129 14.9195 16.0063C15.2598 15.7219 15.4629 15.6152 15.9148 15.4629C17.5043 14.9297 19.2918 15.9301 19.7285 17.5957C19.825 17.9816 19.825 18.6824 19.7285 19.0684C19.5406 19.7793 19.048 20.4547 18.4184 20.8711C17.6871 21.3484 16.707 21.4754 15.8844 21.191C14.884 20.8457 14.1324 20.0383 13.8836 19.043C13.8227 18.7992 13.8074 18.5758 13.8277 18.1797C13.8379 17.8852 13.8633 17.6109 13.8836 17.5652C13.909 17.5043 13.4875 17.2352 11.9387 16.3363C10.8469 15.7016 9.92266 15.1684 9.88203 15.1531C9.83633 15.1379 9.7043 15.209 9.56211 15.3258C8.99336 15.793 8.41445 16.0012 7.65781 16.0012C6.79453 16.0012 6.04805 15.666 5.44375 15.0008C4.91562 14.427 4.67187 13.7871 4.67187 12.9645C4.67187 12.1266 4.99687 11.3902 5.63164 10.8063C6.22578 10.2527 6.8707 9.99883 7.66289 9.99883C8.41445 9.99883 8.99336 10.207 9.56211 10.6742C9.7043 10.791 9.83633 10.8621 9.88203 10.8469C9.92266 10.8316 10.8469 10.2984 11.9387 9.66367C13.4875 8.75977 13.909 8.4957 13.8836 8.43477C13.8633 8.38906 13.8379 8.09961 13.8227 7.78477C13.8023 7.30234 13.8176 7.16524 13.9141 6.84531C14.3254 5.47422 15.6254 4.56524 17.0371 4.66172C17.1793 4.67188 17.4738 4.73281 17.6973 4.79883Z" fill="black"/>
</g>
<defs>
<clipPath id="clip0_5_17">
<rect width="26" height="26" fill="white"/>
</clipPath>
</defs>
</svg>
